<?xml version="1.0" encoding="utf-8"?>
<!-- Generator: Adobe Illustrator 24.0.1, SVG Export Plug-In . SVG Version: 6.00 Build 0)  -->
<svg version="1.1" id="Capa_1" focusable="false" xmlns="http://www.w3.org/2000/svg" xmlns:xlink="http://www.w3.org/1999/xlink"
	 x="0px" y="0px" viewBox="0 0 448 512" style="enable-background:new 0 0 448 512;" xml:space="preserve">
<style type="text/css">
	.st0{fill:#FFFFFF;}
</style>
<path class="st0" d="M412.1,132.1H36c-19.9,0-36-16.1-36-36v0c0-19.9,16.1-36,36-36h376.1c19.9,0,36,16.1,36,36v0
	C448.1,116,432,132.1,412.1,132.1z"/>
<path class="st0" d="M412.1,292.2H36c-19.9,0-36-16.1-36-36v0c0-19.9,16.1-36,36-36h376.1c19.9,0,36,16.1,36,36v0
	C448.1,276,432,292.2,412.1,292.2z"/>
<path class="st0" d="M412.1,452H36c-19.9,0-36-16.1-36-36v0c0-19.9,16.1-36,36-36h376.1c19.9,0,36,16.1,36,36v0
	C448.1,435.9,432,452,412.1,452z"/>
</svg>
