<?xml version="1.0" encoding="utf-8"?>
<!-- Generator: Adobe Illustrator 24.0.1, SVG Export Plug-In . SVG Version: 6.00 Build 0)  -->
<svg version="1.1" id="Capa_1" xmlns="http://www.w3.org/2000/svg" xmlns:xlink="http://www.w3.org/1999/xlink" x="0px" y="0px"
	 viewBox="0 0 48 48" style="enable-background:new 0 0 48 48;" xml:space="preserve">
<style type="text/css">
	.st0{fill:#FFFFFF;}
</style>
<g>
	<path class="st0" d="M47.62,19.78c-0.81-4.61-2.81-8.64-5.99-12.07c-3.87-4.18-8.66-6.66-14.29-7.51
		c-0.58-0.09-1.17-0.14-1.76-0.22h-3.19c-0.86,0.13-1.73,0.23-2.59,0.37c-4.62,0.81-8.66,2.82-12.1,6C3.52,10.23,0.9,15,0.22,20.65
		c-1.13,9.4,2.14,17.04,9.68,22.78c3.16,2.41,6.78,3.83,10.72,4.35c6.69,0.88,12.77-0.69,18.12-4.84c4.72-3.67,7.64-8.49,8.82-14.35
		c0.17-0.84,0.23-1.7,0.35-2.55c0.02-0.15,0.06-0.3,0.09-0.45V22.4C47.88,21.53,47.78,20.65,47.62,19.78z M34.74,13.36
		c-3.64,2.88-7.18,5.68-10.76,8.51c-3.69-2.83-7.36-5.63-11.12-8.51H34.74z M35.88,34.63H11.71V16.98c0.6,0.45,1.14,0.86,1.68,1.27
		c3.04,2.3,6.08,4.6,9.11,6.91c1.04,0.8,1.84,0.76,2.81-0.02c3.38-2.73,6.79-5.42,10.19-8.12c0.11-0.09,0.22-0.16,0.38-0.28V34.63z"
		/>
</g>
</svg>
