<svg id="Capa_1" data-name="Capa 1" xmlns="http://www.w3.org/2000/svg" viewBox="0 0 48 48"><defs><style>.cls-1{fill:#5ac2de;}</style></defs><title>INSTAGRAM_BLUE</title><circle class="cls-1" cx="24" cy="24" r="5.03"/><path class="cls-1" d="M36.3,17.89a8.45,8.45,0,0,0-.52-2.81,5,5,0,0,0-2.86-2.86,8.45,8.45,0,0,0-2.81-.52c-1.59-.07-2.07-.09-6.11-.09s-4.52,0-6.11.09a8.45,8.45,0,0,0-2.81.52,5,5,0,0,0-2.86,2.86,8.45,8.45,0,0,0-.52,2.81c-.07,1.59-.09,2.07-.09,6.11s0,4.52.09,6.11a8.45,8.45,0,0,0,.52,2.81,5,5,0,0,0,2.86,2.86,8.45,8.45,0,0,0,2.81.52c1.59.07,2.07.09,6.11.09s4.52,0,6.11-.09a8.45,8.45,0,0,0,2.81-.52,5,5,0,0,0,2.86-2.86,8.45,8.45,0,0,0,.52-2.81c.07-1.59.09-2.07.09-6.11S36.37,19.48,36.3,17.89ZM24,31.76A7.76,7.76,0,1,1,31.76,24,7.75,7.75,0,0,1,24,31.76Zm8.07-14a1.82,1.82,0,1,1,1.81-1.82A1.81,1.81,0,0,1,32.07,17.75Z"/><path class="cls-1" d="M24,0A24,24,0,1,0,48,24,24,24,0,0,0,24,0ZM39,30.23a11.1,11.1,0,0,1-.7,3.67,7.68,7.68,0,0,1-4.42,4.42,11.1,11.1,0,0,1-3.67.7c-1.61.07-2.13.09-6.23.09s-4.62,0-6.23-.09a11.1,11.1,0,0,1-3.67-.7A7.68,7.68,0,0,1,9.68,33.9,11.1,11.1,0,0,1,9,30.23c-.07-1.61-.09-2.13-.09-6.23s0-4.62.09-6.23a11.1,11.1,0,0,1,.7-3.67A7.68,7.68,0,0,1,14.1,9.68,11.1,11.1,0,0,1,17.77,9c1.61-.07,2.13-.09,6.23-.09s4.62,0,6.23.09a11.1,11.1,0,0,1,3.67.7,7.68,7.68,0,0,1,4.42,4.42,11.1,11.1,0,0,1,.7,3.67c.07,1.61.09,2.13.09,6.23S39.09,28.62,39,30.23Z"/><path class="cls-1" d="M24,19a5,5,0,1,0,5,5A5,5,0,0,0,24,19Zm0,0a5,5,0,1,0,5,5A5,5,0,0,0,24,19Z"/></svg>