<svg id="Capa_1" data-name="Capa 1" xmlns="http://www.w3.org/2000/svg" viewBox="0 0 48 48"><defs><style>.cls-1{fill:#fff;}</style></defs><title>INSTAGRAM</title><circle class="cls-1" cx="24" cy="24" r="5.04" transform="translate(-9.94 24) rotate(-45)"/><path class="cls-1" d="M36.3,17.89a8.32,8.32,0,0,0-.52-2.8,5,5,0,0,0-2.87-2.87,8.32,8.32,0,0,0-2.8-.52c-1.6-.07-2.08-.09-6.11-.09s-4.51,0-6.11.09a8.32,8.32,0,0,0-2.8.52,5,5,0,0,0-2.87,2.87,8.32,8.32,0,0,0-.52,2.8c-.07,1.6-.09,2.08-.09,6.11s0,4.51.09,6.11a8.32,8.32,0,0,0,.52,2.8,5,5,0,0,0,2.87,2.87,8.32,8.32,0,0,0,2.8.52c1.6.07,2.07.09,6.11.09s4.51,0,6.11-.09a8.32,8.32,0,0,0,2.8-.52,5,5,0,0,0,2.87-2.87,8.32,8.32,0,0,0,.52-2.8c.07-1.6.09-2.08.09-6.11S36.37,19.49,36.3,17.89ZM24,31.76A7.76,7.76,0,1,1,31.76,24,7.75,7.75,0,0,1,24,31.76Zm8.07-14a1.82,1.82,0,1,1,1.81-1.82A1.81,1.81,0,0,1,32.07,17.75Z"/><path class="cls-1" d="M24,0A24,24,0,1,0,48,24,24,24,0,0,0,24,0ZM39,30.23a11.1,11.1,0,0,1-.7,3.67,7.83,7.83,0,0,1-4.42,4.42,11.1,11.1,0,0,1-3.67.7c-1.61.07-2.13.09-6.23.09s-4.62,0-6.23-.09a11.1,11.1,0,0,1-3.67-.7A7.83,7.83,0,0,1,9.68,33.9,11.1,11.1,0,0,1,9,30.23c-.07-1.61-.09-2.13-.09-6.23s0-4.62.09-6.23a11.1,11.1,0,0,1,.7-3.67A7.83,7.83,0,0,1,14.1,9.68,11.1,11.1,0,0,1,17.77,9c1.61-.07,2.13-.09,6.23-.09s4.62,0,6.23.09a11.1,11.1,0,0,1,3.67.7,7.83,7.83,0,0,1,4.42,4.42,11.1,11.1,0,0,1,.7,3.67c.07,1.61.09,2.13.09,6.23S39.09,28.62,39,30.23Z"/></svg>