<svg id="Capa_1" data-name="Capa 1" xmlns="http://www.w3.org/2000/svg" viewBox="0 0 48 48"><defs><style>.cls-1{fill:#fff;}</style></defs><title>TELEGRAM</title><path class="cls-1" d="M24,0A24,24,0,1,0,48,24,24,24,0,0,0,24,0ZM35.7,15.26c-.14,2.2-4.23,18.66-4.23,18.66s-.24,1-1.11,1a1.61,1.61,0,0,1-1.18-.46c-.92-.79-3.06-2.31-5.05-3.68-.6.5-1.79,1.54-3,2.78-1.76,1.75-1.53,0-1.53,0l.54-5.74h0a.41.41,0,0,1,.06-.11s10.35-9.19,10.63-10.16c0-.08-.06-.12-.17-.08C30,17.73,18,25.25,16.72,26.09c-.07.05-.29,0-.29,0l-5.78-1.89a.76.76,0,0,1-.47-.92c0-.13.14-.24.41-.42,1.28-.9,23.71-9,23.71-9a1.92,1.92,0,0,1,1-.08.55.55,0,0,1,.37.41,2.17,2.17,0,0,1,0,.51C35.73,14.91,35.71,15,35.7,15.26Z"/></svg>