<svg id="Capa_1" data-name="Capa 1" xmlns="http://www.w3.org/2000/svg" viewBox="0 0 48 48"><defs><style>.cls-1{fill:#fff;}</style></defs><title>YOUTUBE</title><polygon class="cls-1" points="20.8 19.2 29.11 24 20.8 28.8 20.8 19.2"/><path class="cls-1" d="M24,0A24,24,0,1,0,48,24,24,24,0,0,0,24,0ZM39.33,31.7a4,4,0,0,1-2.83,2.83C34,35.2,24,35.2,24,35.2s-10,0-12.5-.67A4,4,0,0,1,8.67,31.7,41.57,41.57,0,0,1,8,24a41.57,41.57,0,0,1,.67-7.7,4,4,0,0,1,2.83-2.83C14,12.8,24,12.8,24,12.8s10,0,12.5.67a4,4,0,0,1,2.83,2.83A41.57,41.57,0,0,1,40,24,41.57,41.57,0,0,1,39.33,31.7Z"/><path class="cls-1" d="M20.8,19.2v9.6L29.11,24Zm0,0v9.6L29.11,24Z"/></svg>